<?xml version="1.0" encoding="utf-8"?>
<!-- Generator: Adobe Illustrator 22.0.1, SVG Export Plug-In . SVG Version: 6.00 Build 0)  -->
<svg version="1.1" id="Layer_1" xmlns="http://www.w3.org/2000/svg" xmlns:xlink="http://www.w3.org/1999/xlink" x="0px" y="0px"
	 viewBox="0 0 246.7 292.2" enable-background="new 0 0 246.7 292.2" xml:space="preserve">
<g>
	<g>
		<path fill="#DEECF9" d="M28.4,229.7c-3.2,0-6.4-0.5-9.6-1.5c-5-1.5-8.9-4.4-11.3-8.4c-1.8-3-2.8-6.4-3.1-10.8
			c-0.1-1.6-0.1-3.1-0.1-4.3c0-4.1,3.3-7.4,7.4-7.4s7.4,3.3,7.4,7.4c0,1.1,0,2.2,0.1,3.3c0.1,2,0.5,3.4,1,4.3c0.6,1.1,2,1.7,3,2
			c4.5,1.4,10.4,1.3,13.5-2.1c2.4-2.5,3.6-6.2,3.6-10.8V119c0-4.1,3.3-7.4,7.4-7.4s7.4,3.3,7.4,7.4v82.3c0,8.4-2.6,15.6-7.5,20.8
			C42.7,227.1,35.8,229.7,28.4,229.7z"/>
	</g>
	<g>
		<g>
			<path fill="#DEECF9" d="M100.7,272.5c-18.7,0-34-15.3-34-34v-19.3c0-4.1,3.3-7.4,7.4-7.4s7.4,3.3,7.4,7.4v19.3
				c0,10.6,8.7,19.3,19.3,19.3s19.3-8.7,19.3-19.3s-8.7-19.3-19.3-19.3c-4.1,0-7.4-3.3-7.4-7.4c0-4.1,3.3-7.4,7.4-7.4
				c18.7,0,34,15.3,34,34S119.4,272.5,100.7,272.5z"/>
		</g>
		<g>
			<path fill="#DEECF9" d="M74.1,244.9c-4.1,0-7.4-3.3-7.4-7.4V105.3c0-4.1,3.3-7.4,7.4-7.4s7.4,3.3,7.4,7.4v132.3
				C81.4,241.6,78.1,244.9,74.1,244.9z"/>
		</g>
	</g>
	<g>
		<g>
			<path fill="#DEECF9" d="M216.7,254.5c-3.2,0-6.4-0.5-9.6-1.5c-5-1.5-8.9-4.4-11.3-8.4c-1.8-3-2.8-6.4-3.1-10.8
				c-0.1-1.6-0.1-3.1-0.1-4.3c0-4.1,3.3-7.4,7.4-7.4c4.1,0,7.4,3.3,7.4,7.4c0,1.1,0,2.2,0.1,3.3c0.1,2,0.5,3.4,1,4.3
				c0.6,1.1,2,1.7,3,2c4.5,1.4,10.4,1.3,13.5-2.1c2.4-2.5,3.6-6.2,3.6-10.8v-82.3c0-4.1,3.3-7.4,7.4-7.4s7.4,3.3,7.4,7.4v82.3
				c0,8.4-2.6,15.6-7.5,20.8C231,251.9,224.1,254.5,216.7,254.5z"/>
		</g>
		<g>
			<path fill="#DEECF9" d="M209.1,176.9c-18.7,0-34-15.3-34-34c0-4.1,3.3-7.4,7.4-7.4c4.1,0,7.4,3.3,7.4,7.4
				c0,10.6,8.7,19.3,19.3,19.3s19.3-8.7,19.3-19.3c0-4.1,3.3-7.4,7.4-7.4s7.4,3.3,7.4,7.4C243.1,161.7,227.9,176.9,209.1,176.9z"/>
		</g>
	</g>
	<g>
		<path fill="#DEECF9" d="M154.9,287.2c-4.1,0-7.4-3.3-7.4-7.4V110.8c0-4.1,3.3-7.4,7.4-7.4s7.4,3.3,7.4,7.4v169.1
			C162.3,283.9,159,287.2,154.9,287.2z"/>
	</g>
	<path fill="#ECF4FE" d="M217.3,97.9c-1.5-52-44-93.7-96.4-93.7c-52.4,0-95,41.7-96.4,93.7c0,0.4-0.1,0.9-0.1,1.4v41.3
		c0,7.6,6.2,13.8,13.8,13.8S52,148.2,52,140.6v7.8c0,7.6,6.2,13.8,13.8,13.8c7.6,0,13.8-6.2,13.8-13.8v3.7c0,7.6,6.2,13.8,13.8,13.8
		c7.6,0,13.8-6.2,13.8-13.8c0,7.6,6.2,13.8,13.8,13.8c7.6,0,13.8-6.2,13.8-13.8c0,7.6,6.2,13.8,13.8,13.8c7.6,0,13.8-6.2,13.8-13.8
		v-5.7c0,7.6,6.2,13.8,13.8,13.8s13.8-6.2,13.8-13.8v-5.8c0,7.6,6.2,13.8,13.8,13.8c7.6,0,13.8-6.2,13.8-13.8V99.3
		C217.4,98.8,217.4,98.4,217.3,97.9z M52,100.7L52,100.7c0,0.2,0,0.4,0,0.6V100.7z M79.5,100.7L79.5,100.7l0,0.6
		C79.6,101.1,79.5,100.9,79.5,100.7z"/>
	<g>
		<path fill="#ECF4FE" d="M217.3,97.9c-1.5-52-44-93.7-96.4-93.7c-22.9,0-43.9,8-60.5,21.3c7.6-1.9,15.5-2.9,23.7-2.9
			c52.4,0,95,41.7,96.4,93.7c0,0.4,0.1,0.9,0.1,1.4V159c0,0.1,0,0.3,0,0.4c5.3-1.9,9.2-7,9.2-13v-5.8c0,7.6,6.2,13.8,13.8,13.8
			c7.6,0,13.8-6.2,13.8-13.8V99.3C217.4,98.8,217.4,98.4,217.3,97.9z"/>
		<path fill="#ECF4FE" d="M125.5,165.1C125.5,165.1,125.5,165.1,125.5,165.1c0-0.1,0-0.2,0-0.3V165.1z"/>
		<path fill="#ECF4FE" d="M42.8,119L42.8,119c0,0.2,0,0.4,0,0.6V119z"/>
	</g>
	<circle fill="#032139" cx="202.7" cy="123.6" r="7.4"/>
	<circle fill="#032139" cx="175.1" cy="129.2" r="7.4"/>
</g>
</svg>
